<?xml version="1.0" encoding="iso-8859-1"?>
<!-- Generator: Adobe Illustrator 19.2.1, SVG Export Plug-In . SVG Version: 6.00 Build 0)  -->
<svg xmlns="http://www.w3.org/2000/svg" xmlns:xlink="http://www.w3.org/1999/xlink" version="1.1" id="Layer_1" x="0px" y="0px" viewBox="0 0 40 40" style="enable-background:new 0 0 40 40;" xml:space="preserve" width="480px" height="480px">
<g>
	<g>
		<path style="fill:#8B75A1;" d="M24.279,3l0.667,2h-9.892l0.667-2H24.279 M24.279,2h-8.558c-0.43,0-0.813,0.275-0.949,0.684L14,5v1    h12V5l-0.772-2.316C25.092,2.275,24.71,2,24.279,2L24.279,2z"/>
	</g>
</g>
<g>
	<path style="fill:#DCD5F2;" d="M8,37.5c-0.827,0-1.5-0.673-1.5-1.5V8.5h27V36c0,0.827-0.673,1.5-1.5,1.5H8z"/>
	<path style="fill:#8B75A1;" d="M33,9v27c0,0.551-0.449,1-1,1H8c-0.551,0-1-0.449-1-1V9H33 M34,8H6v28c0,1.105,0.895,2,2,2h24   c1.105,0,2-0.895,2-2V8L34,8z"/>
</g>
<g>
	<path style="fill:#DCD5F2;" d="M4.5,8.5V7c0-0.827,0.673-1.5,1.5-1.5h28c0.827,0,1.5,0.673,1.5,1.5v1.5H4.5z"/>
	<g>
		<path style="fill:#8B75A1;" d="M34,6c0.551,0,1,0.449,1,1v1H5V7c0-0.551,0.449-1,1-1H34 M34,5H6C4.895,5,4,5.895,4,7v2h32V7    C36,5.895,35.105,5,34,5L34,5z"/>
	</g>
</g>
<rect x="24" y="11" style="fill:#8B75A1;" width="1" height="24"/>
<rect x="15" y="11" style="fill:#8B75A1;" width="1" height="24"/>
<rect x="10" y="11" style="fill:#8B75A1;" width="1" height="24"/>
<rect x="29" y="11" style="fill:#8B75A1;" width="1" height="24"/>
</svg>
